<svg width="1038" height="201" viewBox="0 0 1038 201" fill="none" xmlns="http://www.w3.org/2000/svg">
<mask id="mask0_38_29" style="mask-type:alpha" maskUnits="userSpaceOnUse" x="0" y="1" width="200" height="200">
<path d="M100.931 1.08936C102.204 1.13196 103.491 1.26117 104.754 1.42405C112.542 2.4282 119.662 6.91195 124.415 13.0931C129.197 19.3126 129.951 27.1248 128.915 34.6576C127.548 44.587 118.905 53.4837 109.561 56.6451C106.255 57.7635 102.897 57.7635 99.5087 58.356C96.9017 58.8122 94.4281 59.6459 91.882 60.3404C84.7181 62.294 79.0487 63.881 73.0559 68.4452C70.0749 70.8264 67.0081 73.5213 64.9584 76.7737C63.0407 75.1706 61.5829 73.1305 59.8089 71.3837C57.4051 69.0165 54.6485 66.9852 51.9982 64.9054C55.4463 62.4642 58.6231 59.1898 61.3394 55.9609C65.3427 51.2023 68.4916 45.6928 69.9055 39.6032C72.2793 29.3813 69.7067 20.3943 77.263 11.5242C83.6474 4.02966 91.5315 1.88202 100.931 1.08936Z" fill="black"/>
<path d="M64.0373 124.464C65.7504 125.219 67.7531 128.374 69.2191 129.779C70.7649 131.236 72.3922 132.604 74.095 133.874C80.2843 138.514 88.0841 142.487 95.9931 142.391C100.026 142.342 103.491 141.908 107.49 142.923C115.026 144.836 121.385 149.394 125.368 156.121C129.441 163.108 130.575 171.427 128.519 179.25C126.564 186.727 120.871 192.787 114.347 196.655C110.734 198.745 106.535 199.805 102.386 200.089C94.6085 200.584 86.9481 198.001 81.0595 192.897C75.6973 188.182 72.0417 181.948 71.3435 174.772C71.1111 172.379 71.2709 169.966 71.103 167.567C70.3858 157.284 65.5649 148.261 58.3951 141.001C56.396 138.977 54.1689 137.15 52.0187 135.288C54.3427 133.554 56.6409 131.826 58.7639 129.844C60.5943 128.135 62.2685 126.241 64.0373 124.464Z" fill="black"/>
<path d="M25.987 72.1003C41.8386 70.3263 56.1283 81.7341 57.9103 97.5851C59.6923 113.435 48.2919 127.732 32.4424 129.522C16.5808 131.313 2.27211 119.903 0.488936 104.041C-1.29431 88.1779 10.1238 73.8749 25.987 72.1003Z" fill="black"/>
<path d="M170.217 72.0813C186.109 71.7095 199.296 84.2876 199.675 100.18C200.054 116.072 187.482 129.264 171.59 129.651C155.688 130.038 142.484 117.456 142.105 101.553C141.725 85.6501 154.314 72.4531 170.217 72.0813Z" fill="black"/>
</mask>
<g mask="url(#mask0_38_29)">
<g clip-path="url(#paint0_diamond_38_29_clip_path)" data-figma-skip-parse="true"><g transform="matrix(0 0.130167 -0.130167 0 97.4333 98.3669)"><rect x="0" y="0" width="1007.68" height="979.513" fill="url(#paint0_diamond_38_29)" opacity="1" shape-rendering="crispEdges"/><rect x="0" y="0" width="1007.68" height="979.513" transform="scale(1 -1)" fill="url(#paint0_diamond_38_29)" opacity="1" shape-rendering="crispEdges"/><rect x="0" y="0" width="1007.68" height="979.513" transform="scale(-1 1)" fill="url(#paint0_diamond_38_29)" opacity="1" shape-rendering="crispEdges"/><rect x="0" y="0" width="1007.68" height="979.513" transform="scale(-1)" fill="url(#paint0_diamond_38_29)" opacity="1" shape-rendering="crispEdges"/></g></g><rect x="-29.0667" y="-31.7998" width="253" height="260.333" data-figma-gradient-fill="{&#34;type&#34;:&#34;GRADIENT_DIAMOND&#34;,&#34;stops&#34;:[{&#34;color&#34;:{&#34;r&#34;:0.34750601649284363,&#34;g&#34;:0.40188053250312805,&#34;b&#34;:1.0,&#34;a&#34;:1.0},&#34;position&#34;:0.37980768084526062},{&#34;color&#34;:{&#34;r&#34;:0.72490984201431274,&#34;g&#34;:0.84870052337646484,&#34;b&#34;:1.0,&#34;a&#34;:1.0},&#34;position&#34;:1.0}],&#34;stopsVar&#34;:[{&#34;color&#34;:{&#34;r&#34;:0.34750601649284363,&#34;g&#34;:0.40188053250312805,&#34;b&#34;:1.0,&#34;a&#34;:1.0},&#34;position&#34;:0.37980768084526062},{&#34;color&#34;:{&#34;r&#34;:0.72490984201431274,&#34;g&#34;:0.84870052337646484,&#34;b&#34;:1.0,&#34;a&#34;:1.0},&#34;position&#34;:1.0}],&#34;transform&#34;:{&#34;m00&#34;:1.5491781983753214e-14,&#34;m01&#34;:-260.33334350585938,&#34;m02&#34;:227.59996032714844,&#34;m10&#34;:260.33334350585938,&#34;m11&#34;:2.0842589061446405e-14,&#34;m12&#34;:-31.79980468750},&#34;opacity&#34;:1.0,&#34;blendMode&#34;:&#34;NORMAL&#34;,&#34;visible&#34;:true}"/>
</g>
<path d="M168.493 0.900495C169.203 0.807948 169.981 0.83215 170.7 0.828483C178.594 0.78793 186.614 4.19632 192.193 9.74626C197.574 15.0984 200.091 22.1682 200.106 29.6702C200.132 42.9157 190.09 54.4231 177.377 57.333C173.354 58.2541 168.784 57.6571 165.416 58.5393C163.944 58.9251 162.633 59.8432 161.203 60.3595C159.143 61.1038 157.026 61.6758 154.977 62.4561C149.544 64.5241 144.843 67.7947 140.762 71.9058C132.616 80.1133 128.755 90.5083 128.802 102.002C128.831 109.28 131.195 115.799 134.957 121.962C141.097 132.022 151.518 139.414 163.184 141.495C166.318 142.055 169.59 142.07 172.758 142.424C180.15 143.251 187.011 146.27 192.296 151.552C197.417 156.673 200.266 163.636 200.204 170.879C200.202 178.681 197.5 185.53 191.953 191.048C187.343 195.634 180.109 199.602 173.471 199.592C166.144 200.17 159.17 198.069 153.362 193.553C148.009 189.39 143.165 182.143 142.303 175.372C141.891 172.141 142.196 168.846 141.776 165.607C139.64 149.135 126.893 134.109 110.503 130.369C106.11 129.368 101.578 129.493 97.1092 129.165C91.4207 128.747 85.4089 126.271 80.9209 122.769C75.1994 118.342 71.5049 111.795 70.6711 104.61C69.7962 96.9271 72.0013 89.2103 76.8039 83.1507C81.1189 77.6522 88.1141 73.3761 95.1417 72.6347C99.2813 72.1984 103.399 72.5504 107.696 72.0085C114.513 71.1475 120.703 67.9143 125.941 63.5671C134.91 56.1237 140.554 46.0507 141.786 34.4479C142.049 31.9787 142.002 29.4898 142.173 27.0148C142.508 21.5529 144.488 16.3198 147.853 12.0045C152.812 5.67119 160.595 1.88741 168.493 0.900495Z" fill="#8A7DFF"/>
<path d="M28.1268 141.943C44.0833 141.211 57.6133 153.55 58.3511 169.506C59.0881 185.463 46.7534 198.997 30.7975 199.74C14.8331 200.484 1.29018 188.142 0.552523 172.177C-0.185137 156.213 12.1619 142.674 28.1268 141.943Z" fill="#A810CE"/>
<path d="M26.3368 0.953324C42.2375 -0.677609 56.4392 10.9142 58.0276 26.8188C59.6153 42.7241 47.9846 56.895 32.0757 58.4394C16.2276 59.9779 2.12293 48.4023 0.541207 32.5579C-1.04059 16.7141 10.4972 2.5781 26.3368 0.953324Z" fill="#A810CE"/>
<path d="M253.8 105.2C253.8 91.4667 254.933 79.6667 257.2 69.8C259.6 59.8 263.533 51.6 269 45.2C274.6 38.8 281.933 34.0667 291 31C300.067 27.9333 311.267 26.4 324.6 26.4C338.067 26.4 349.267 27.9333 358.2 31C367.267 34.0667 374.533 38.8 380 45.2C385.6 51.6 389.533 59.8 391.8 69.8C394.2 79.6667 395.4 91.4667 395.4 105.2C395.4 118.267 394.333 129.733 392.2 139.6C390.067 149.333 386.267 157.467 380.8 164C375.467 170.533 368.2 175.467 359 178.8C349.933 182 338.467 183.6 324.6 183.6C310.733 183.6 299.2 182 290 178.8C280.933 175.467 273.667 170.533 268.2 164C262.867 157.467 259.133 149.333 257 139.6C254.867 129.733 253.8 118.267 253.8 105.2ZM305.4 80.2V142.6H325.4C332.067 142.6 336.8 141.867 339.6 140.4C342.533 138.8 344 135.267 344 129.8V67.4H323.8C317.4 67.4 312.733 68.2 309.8 69.8C306.867 71.2667 305.4 74.7333 305.4 80.2ZM500.972 88.6V124.4H460.172V180H412.172V30H510.572L504.572 68.4H460.172V88.6H500.972ZM566.263 156.2L560.863 180H510.262L549.063 30H623.262L662.063 180H611.463L605.863 156.2H566.263ZM587.463 76H584.863L575.063 118H597.063L587.463 76ZM668.952 60H716.952V148.6H724.352C730.218 148.6 734.418 148 736.952 146.8C739.618 145.6 740.952 142.8 740.952 138.4V60H788.952V180H764.952L750.952 166.4C741.352 177.867 727.685 183.6 709.952 183.6C695.685 183.6 685.285 180.6 678.752 174.6C672.218 168.467 668.952 158.267 668.952 144V60ZM817.753 91H805.753V60H817.753V40.8L865.753 28.8V60H882.353V91H865.753V145.6C867.753 146 869.953 146.4 872.353 146.8C874.753 147.067 877.286 147.267 879.953 147.4L877.753 182.6C855.886 182.6 841.62 181.4 834.953 179C829.353 177 825.086 174.467 822.153 171.4C819.22 168.2 817.753 163.533 817.753 157.4V91ZM948.258 106V180H900.258V24L948.258 20.4V64.4C958.524 59.0667 969.858 56.4 982.258 56.4C994.791 56.4 1004.26 58.8667 1010.66 63.8C1017.06 68.6 1020.26 75.3333 1020.26 84V180H972.258V96H964.858C958.991 96 954.724 96.6 952.058 97.8C949.524 99 948.258 101.733 948.258 106Z" fill="black"/>
<defs>
<clipPath id="paint0_diamond_38_29_clip_path"><rect x="-29.0667" y="-31.7998" width="253" height="260.333"/></clipPath><linearGradient id="paint0_diamond_38_29" x1="0" y1="0" x2="500" y2="500" gradientUnits="userSpaceOnUse">
<stop offset="0.379808" stop-color="#5966FF"/>
<stop offset="1" stop-color="#B9D8FF"/>
</linearGradient>
</defs>
</svg>
